<mxfile host="app.diagrams.net" modified="2023-06-05T07:40:58.970Z" agent="Mozilla/5.0 (Windows NT 10.0; Win64; x64) AppleWebKit/537.36 (KHTML, like Gecko) Chrome/112.0.0.0 YaBrowser/23.5.1.714 Yowser/2.5 Safari/537.36" etag="kT-V6ZZeSw-suj1IxSxP" version="21.3.7" type="github">
  <diagram name="Страница 1" id="sEYR3FyFLk_XQ8jIZZSz">
    <mxGraphModel dx="832" dy="519" grid="1" gridSize="10" guides="1" tooltips="1" connect="1" arrows="1" fold="1" page="1" pageScale="1" pageWidth="827" pageHeight="1169" math="0" shadow="0">
      <root>
        <mxCell id="0" />
        <mxCell id="1" parent="0" />
        <mxCell id="5P9jqnLyqEITbqD3Z9lT-1" value="" style="ellipse;whiteSpace=wrap;html=1;aspect=fixed;" parent="1" vertex="1">
          <mxGeometry x="190" y="260" width="80" height="80" as="geometry" />
        </mxCell>
        <mxCell id="5P9jqnLyqEITbqD3Z9lT-2" value="" style="ellipse;whiteSpace=wrap;html=1;aspect=fixed;" parent="1" vertex="1">
          <mxGeometry x="350" y="260" width="80" height="80" as="geometry" />
        </mxCell>
        <mxCell id="5P9jqnLyqEITbqD3Z9lT-3" value="" style="ellipse;whiteSpace=wrap;html=1;aspect=fixed;" parent="1" vertex="1">
          <mxGeometry x="504" y="260" width="80" height="80" as="geometry" />
        </mxCell>
        <mxCell id="5P9jqnLyqEITbqD3Z9lT-5" value="Sign" style="text;html=1;strokeColor=none;fillColor=none;align=center;verticalAlign=middle;whiteSpace=wrap;rounded=0;" parent="1" vertex="1">
          <mxGeometry x="200" y="285" width="60" height="30" as="geometry" />
        </mxCell>
        <mxCell id="5P9jqnLyqEITbqD3Z9lT-6" value="Player" style="text;html=1;strokeColor=none;fillColor=none;align=center;verticalAlign=middle;whiteSpace=wrap;rounded=0;" parent="1" vertex="1">
          <mxGeometry x="360" y="285" width="60" height="30" as="geometry" />
        </mxCell>
        <mxCell id="5P9jqnLyqEITbqD3Z9lT-7" value="Bord" style="text;html=1;strokeColor=none;fillColor=none;align=center;verticalAlign=middle;whiteSpace=wrap;rounded=0;" parent="1" vertex="1">
          <mxGeometry x="514" y="285" width="60" height="30" as="geometry" />
        </mxCell>
        <mxCell id="5P9jqnLyqEITbqD3Z9lT-8" value="" style="endArrow=classic;html=1;rounded=0;exitX=0;exitY=0.5;exitDx=0;exitDy=0;entryX=0.5;entryY=0;entryDx=0;entryDy=0;" parent="1" source="7baYl4XbE3dXX0JIqvit-1" target="5P9jqnLyqEITbqD3Z9lT-2" edge="1">
          <mxGeometry width="50" height="50" relative="1" as="geometry">
            <mxPoint x="520" y="400" as="sourcePoint" />
            <mxPoint x="350" y="300" as="targetPoint" />
            <Array as="points">
              <mxPoint x="390" y="155" />
            </Array>
          </mxGeometry>
        </mxCell>
        <mxCell id="5P9jqnLyqEITbqD3Z9lT-9" value="" style="endArrow=classic;html=1;rounded=0;entryX=0.5;entryY=0;entryDx=0;entryDy=0;exitX=0.5;exitY=1;exitDx=0;exitDy=0;" parent="1" source="7baYl4XbE3dXX0JIqvit-1" target="5P9jqnLyqEITbqD3Z9lT-3" edge="1">
          <mxGeometry width="50" height="50" relative="1" as="geometry">
            <mxPoint x="540" y="200" as="sourcePoint" />
            <mxPoint x="570" y="350" as="targetPoint" />
          </mxGeometry>
        </mxCell>
        <mxCell id="7baYl4XbE3dXX0JIqvit-1" value="" style="ellipse;whiteSpace=wrap;html=1;aspect=fixed;" vertex="1" parent="1">
          <mxGeometry x="504" y="115" width="80" height="80" as="geometry" />
        </mxCell>
        <mxCell id="7baYl4XbE3dXX0JIqvit-2" value="Game" style="text;html=1;strokeColor=none;fillColor=none;align=center;verticalAlign=middle;whiteSpace=wrap;rounded=0;" vertex="1" parent="1">
          <mxGeometry x="514" y="140" width="60" height="30" as="geometry" />
        </mxCell>
        <mxCell id="7baYl4XbE3dXX0JIqvit-3" value="" style="endArrow=classic;html=1;rounded=0;exitX=0;exitY=0.5;exitDx=0;exitDy=0;entryX=1;entryY=0.5;entryDx=0;entryDy=0;" edge="1" parent="1" source="5P9jqnLyqEITbqD3Z9lT-3" target="5P9jqnLyqEITbqD3Z9lT-2">
          <mxGeometry width="50" height="50" relative="1" as="geometry">
            <mxPoint x="390" y="300" as="sourcePoint" />
            <mxPoint x="440" y="250" as="targetPoint" />
          </mxGeometry>
        </mxCell>
        <mxCell id="7baYl4XbE3dXX0JIqvit-4" value="" style="endArrow=classic;html=1;rounded=0;entryX=1;entryY=0.5;entryDx=0;entryDy=0;" edge="1" parent="1" target="5P9jqnLyqEITbqD3Z9lT-1">
          <mxGeometry width="50" height="50" relative="1" as="geometry">
            <mxPoint x="350" y="300" as="sourcePoint" />
            <mxPoint x="440" y="250" as="targetPoint" />
          </mxGeometry>
        </mxCell>
      </root>
    </mxGraphModel>
  </diagram>
</mxfile>
